<svg width="64" height="64" viewBox="0 0 64 64" fill="none" xmlns="http://www.w3.org/2000/svg">
<path d="M53.415 20.585L39.415 6.585C39.2291 6.39933 39.0085 6.2521 38.7657 6.15173C38.5229 6.05135 38.2627 5.99979 38 6H14C12.9391 6 11.9217 6.42143 11.1716 7.17157C10.4214 7.92172 10 8.93913 10 10V54C10 55.0609 10.4214 56.0783 11.1716 56.8284C11.9217 57.5786 12.9391 58 14 58H50C51.0609 58 52.0783 57.5786 52.8284 56.8284C53.5786 56.0783 54 55.0609 54 54V22C54.0002 21.7373 53.9487 21.4771 53.8483 21.2343C53.7479 20.9915 53.6007 20.7709 53.415 20.585ZM40 12.8275L47.1725 20H40V12.8275ZM50 54H14V10H36V22C36 22.5304 36.2107 23.0391 36.5858 23.4142C36.9609 23.7893 37.4696 24 38 24H50V54ZM40 38C40 38.5304 39.7893 39.0391 39.4142 39.4142C39.0391 39.7893 38.5304 40 38 40H34V44C34 44.5304 33.7893 45.0391 33.4142 45.4142C33.0391 45.7893 32.5304 46 32 46C31.4696 46 30.9609 45.7893 30.5858 45.4142C30.2107 45.0391 30 44.5304 30 44V40H26C25.4696 40 24.9609 39.7893 24.5858 39.4142C24.2107 39.0391 24 38.5304 24 38C24 37.4696 24.2107 36.9609 24.5858 36.5858C24.9609 36.2107 25.4696 36 26 36H30V32C30 31.4696 30.2107 30.9609 30.5858 30.5858C30.9609 30.2107 31.4696 30 32 30C32.5304 30 33.0391 30.2107 33.4142 30.5858C33.7893 30.9609 34 31.4696 34 32V36H38C38.5304 36 39.0391 36.2107 39.4142 36.5858C39.7893 36.9609 40 37.4696 40 38Z" fill="#242628"/>
</svg>
