<svg width="64" height="64" viewBox="0 0 64 64" fill="none" xmlns="http://www.w3.org/2000/svg">
<path d="M32.0001 20C29.6267 20 27.3067 20.7038 25.3333 22.0224C23.3599 23.3409 21.8218 25.2151 20.9136 27.4078C20.0053 29.6005 19.7677 32.0133 20.2307 34.3411C20.6937 36.6689 21.8366 38.807 23.5148 40.4853C25.1931 42.1635 27.3313 43.3064 29.659 43.7694C31.9868 44.2324 34.3996 43.9948 36.5923 43.0866C38.785 42.1783 40.6592 40.6402 41.9778 38.6668C43.2963 36.6934 44.0001 34.3734 44.0001 32C43.9968 28.8184 42.7315 25.7681 40.4817 23.5184C38.232 21.2686 35.1817 20.0033 32.0001 20ZM32.0001 40C30.4179 40 28.8711 39.5308 27.5556 38.6518C26.24 37.7727 25.2146 36.5233 24.6091 35.0615C24.0036 33.5997 23.8452 31.9911 24.1538 30.4393C24.4625 28.8874 25.2244 27.462 26.3433 26.3431C27.4621 25.2243 28.8875 24.4624 30.4394 24.1537C31.9912 23.845 33.5998 24.0035 35.0616 24.609C36.5234 25.2145 37.7728 26.2398 38.6519 27.5554C39.5309 28.871 40.0001 30.4177 40.0001 32C40.0001 34.1217 39.1573 36.1566 37.657 37.6568C36.1567 39.1571 34.1218 40 32.0001 40ZM54.0001 32.54C54.0101 32.18 54.0101 31.82 54.0001 31.46L57.7301 26.8C57.9257 26.5553 58.0611 26.2681 58.1253 25.9616C58.1896 25.655 58.181 25.3376 58.1001 25.035C57.4886 22.7365 56.5739 20.5296 55.3801 18.4725C55.2238 18.2033 55.0068 17.9743 54.7464 17.8037C54.486 17.6332 54.1894 17.5257 53.8801 17.49L47.9501 16.83C47.7035 16.57 47.4535 16.32 47.2001 16.08L46.5001 10.135C46.4641 9.82552 46.3563 9.52874 46.1853 9.26832C46.0143 9.00789 45.7848 8.79102 45.5151 8.63499C43.4572 7.44336 41.2505 6.52958 38.9526 5.91749C38.6498 5.83698 38.3323 5.82875 38.0257 5.89345C37.7192 5.95816 37.4321 6.09398 37.1876 6.28999L32.5401 9.99999C32.1801 9.99999 31.8201 9.99999 31.4601 9.99999L26.8001 6.27749C26.5554 6.08191 26.2683 5.94654 25.9617 5.88227C25.6551 5.818 25.3377 5.82664 25.0351 5.90749C22.737 6.52006 20.5303 7.4347 18.4726 8.62749C18.2034 8.78381 17.9744 9.00081 17.8038 9.26121C17.6333 9.52162 17.5258 9.81825 17.4901 10.1275L16.8301 16.0675C16.5701 16.3158 16.3201 16.5658 16.0801 16.8175L10.1351 17.5C9.82565 17.536 9.52887 17.6438 9.26844 17.8148C9.00801 17.9858 8.79114 18.2153 8.63511 18.485C7.44348 20.5429 6.5297 22.7496 5.91761 25.0475C5.83711 25.3503 5.82887 25.6678 5.89357 25.9744C5.95828 26.281 6.09411 26.568 6.29011 26.8125L10.0001 31.46C10.0001 31.82 10.0001 32.18 10.0001 32.54L6.27761 37.2C6.08204 37.4447 5.94666 37.7319 5.88239 38.0384C5.81813 38.345 5.82676 38.6624 5.90761 38.965C6.51909 41.2635 7.43379 43.4704 8.62761 45.5275C8.78393 45.7967 9.00093 46.0257 9.26134 46.1963C9.52175 46.3668 9.81837 46.4743 10.1276 46.51L16.0576 47.17C16.3059 47.43 16.5559 47.68 16.8076 47.92L17.5001 53.865C17.5361 54.1745 17.6439 54.4712 17.8149 54.7317C17.986 54.9921 18.2154 55.209 18.4851 55.365C20.543 56.5566 22.7497 57.4704 25.0476 58.0825C25.3504 58.163 25.6679 58.1712 25.9745 58.1065C26.2811 58.0418 26.5682 57.906 26.8126 57.71L31.4601 54C31.8201 54.01 32.1801 54.01 32.5401 54L37.2001 57.73C37.4448 57.9256 37.732 58.061 38.0385 58.1252C38.3451 58.1895 38.6625 58.1808 38.9651 58.1C41.2636 57.4885 43.4705 56.5738 45.5276 55.38C45.7968 55.2237 46.0258 55.0067 46.1964 54.7463C46.367 54.4859 46.4744 54.1892 46.5101 53.88L47.1701 47.95C47.4301 47.7033 47.6801 47.4533 47.9201 47.2L53.8651 46.5C54.1746 46.464 54.4714 46.3562 54.7318 46.1852C54.9922 46.0142 55.2091 45.7847 55.3651 45.515C56.5568 43.4571 57.4705 41.2504 58.0826 38.9525C58.1631 38.6497 58.1714 38.3322 58.1067 38.0256C58.042 37.719 57.9061 37.4319 57.7101 37.1875L54.0001 32.54ZM49.9751 30.915C50.0176 31.6377 50.0176 32.3623 49.9751 33.085C49.9453 33.5798 50.1004 34.068 50.4101 34.455L53.9576 38.8875C53.5506 40.1812 53.0293 41.4361 52.4001 42.6375L46.7501 43.2775C46.2581 43.3321 45.8038 43.5673 45.4751 43.9375C44.9939 44.4787 44.4813 44.9913 43.9401 45.4725C43.5699 45.8012 43.3347 46.2555 43.2801 46.7475L42.6526 52.3925C41.4514 53.022 40.1964 53.5432 38.9026 53.95L34.4676 50.4025C34.1127 50.1189 33.6719 49.9646 33.2176 49.965H33.0976C32.3749 50.0075 31.6503 50.0075 30.9276 49.965C30.4328 49.9352 29.9446 50.0902 29.5576 50.4L25.1126 53.95C23.8189 53.5429 22.564 53.0217 21.3626 52.3925L20.7226 46.75C20.668 46.258 20.4328 45.8037 20.0626 45.475C19.5214 44.9938 19.0088 44.4812 18.5276 43.94C18.1989 43.5698 17.7447 43.3346 17.2526 43.28L11.6076 42.65C10.9781 41.4487 10.4569 40.1938 10.0501 38.9L13.5976 34.465C13.9074 34.078 14.0624 33.5898 14.0326 33.095C13.9901 32.3723 13.9901 31.6477 14.0326 30.925C14.0624 30.4302 13.9074 29.942 13.5976 29.555L10.0501 25.1125C10.4572 23.8188 10.9784 22.5639 11.6076 21.3625L17.2501 20.7225C17.7422 20.6679 18.1964 20.4327 18.5251 20.0625C19.0063 19.5213 19.5189 19.0087 20.0601 18.5275C20.4318 18.1986 20.6679 17.7433 20.7226 17.25L21.3501 11.6075C22.5514 10.978 23.8063 10.4567 25.1001 10.05L29.5351 13.5975C29.9221 13.9073 30.4103 14.0623 30.9051 14.0325C31.6278 13.99 32.3524 13.99 33.0751 14.0325C33.5699 14.0623 34.0581 13.9073 34.4451 13.5975L38.8876 10.05C40.1813 10.4571 41.4362 10.9783 42.6376 11.6075L43.2776 17.25C43.3322 17.742 43.5674 18.1963 43.9376 18.525C44.4788 19.0062 44.9914 19.5188 45.4726 20.06C45.8013 20.4302 46.2556 20.6654 46.7476 20.72L52.3926 21.3475C53.0221 22.5488 53.5434 23.8037 53.9501 25.0975L50.4026 29.5325C50.0899 29.9227 49.9347 30.416 49.9676 30.915H49.9751Z" fill="#242628"/>
</svg>
