<svg width="87" height="64" viewBox="0 0 87 64" fill="none" xmlns="http://www.w3.org/2000/svg">
<path d="M82.1631 0C83.728 4.69895e-09 84.5113 0.000313334 85.042 0.325195C85.5069 0.61011 85.85 1.0573 86.0049 1.58008C86.1816 2.17688 85.9795 2.93325 85.5742 4.44531L73.3789 49.9492C72.8768 51.8227 72.6252 52.7596 72.0908 53.4561C71.6192 54.0705 70.9939 54.5502 70.2783 54.8467C69.4673 55.1825 68.497 55.1826 66.5576 55.1826H25.6719C24.1069 55.1826 23.3236 55.1826 22.793 54.8574C22.3282 54.5724 21.9849 54.1253 21.8301 53.6025C21.6534 53.0058 21.8565 52.2493 22.2617 50.7373L25.0742 40.2441H20.7939L16.8008 55.1436C16.3956 56.6555 16.1924 57.412 16.3691 58.0088C16.524 58.5315 16.8672 58.9787 17.332 59.2637C17.8627 59.5887 18.646 59.5889 20.2109 59.5889H61.0957C61.4816 59.5889 61.83 59.5866 62.1455 59.584C61.778 60.9282 61.5321 61.6867 61.082 62.2734C60.6104 62.8879 59.9842 63.3686 59.2686 63.665C58.4577 64.0006 57.4869 64.001 55.5479 64.001H14.6631C13.0981 64.001 12.3148 63.9998 11.7842 63.6748C11.3194 63.3899 10.9761 62.9426 10.8213 62.4199C10.6448 61.8232 10.8469 61.0671 11.252 59.5557L16.4287 40.2441H11.6797C10.5369 40.2441 9.61037 39.3002 9.61035 38.1357C9.61035 36.9713 10.5369 36.0273 11.6797 36.0273H17.5586L17.5596 36.0234H21.9248L21.9238 36.0273H26.2041L26.2051 36.0234H63.4209C64.5634 36.0232 65.4891 35.0793 65.4893 33.915C65.4893 32.777 64.605 31.852 63.498 31.8105H2.06934C0.926755 31.8104 0.000166349 30.8664 0 29.7021C0 28.5377 0.926652 27.5939 2.06934 27.5938H19.8184L19.8193 27.5898H24.1855L24.1846 27.5938H28.4648L28.4658 27.5898H60.167C61.3098 27.5898 62.2363 26.6449 62.2363 25.4805C62.2361 24.3424 61.3512 23.4172 60.2441 23.376H9.97852C8.83573 23.376 7.90918 22.4321 7.90918 21.2676C7.90938 20.1033 8.83586 19.1592 9.97852 19.1592H22.0791L22.0801 19.1553H26.4463L26.4453 19.1592H30.7246L30.7256 19.1553H70.9961C72.1388 19.1552 73.0654 18.2113 73.0654 17.0469C73.0653 15.8825 72.1387 14.9386 70.9961 14.9385H31.8564L34.457 5.2334C34.9591 3.36004 35.2108 2.42297 35.7451 1.72656C36.2167 1.11212 36.842 0.632381 37.5576 0.335938C38.3686 9.23683e-05 39.3389 9.8536e-09 41.2783 0H82.1631ZM28.9961 9.63965L27.5762 14.9385H23.2109L23.4482 14.0518C23.9503 12.1785 24.2012 11.2413 24.7354 10.5449C25.2068 9.93059 25.8325 9.45078 26.5479 9.1543C27.1972 8.88541 27.9495 8.83295 29.2188 8.82227C29.1501 9.07348 29.0751 9.34473 28.9961 9.63965Z" fill="#0034C2"/>
</svg>
