<svg width="33" height="24" viewBox="0 0 33 24" fill="none" xmlns="http://www.w3.org/2000/svg">
<path d="M30.8115 0C31.3984 2.67769e-08 31.6926 0.000123479 31.8916 0.12207C32.0657 0.228948 32.1939 0.39685 32.252 0.592773C32.3182 0.816547 32.2428 1.10011 32.0908 1.66699L27.5176 18.7305C27.3293 19.4331 27.2346 19.7847 27.0342 20.0459C26.8573 20.2763 26.6228 20.4562 26.3545 20.5674C26.0504 20.6933 25.6862 20.6934 24.959 20.6934H9.62695C9.04034 20.6934 8.74681 20.6931 8.54785 20.5713C8.37352 20.4644 8.2446 20.2966 8.18652 20.1006C8.12042 19.8768 8.19674 19.5931 8.34863 19.0264L9.40332 15.0918H7.79785L6.30078 20.6787C6.14891 21.2454 6.07255 21.5292 6.13867 21.7529C6.19679 21.9489 6.32571 22.1168 6.5 22.2236C6.69898 22.3454 6.99258 22.3457 7.5791 22.3457H22.9111C23.0558 22.3457 23.1864 22.3447 23.3047 22.3438C23.1669 22.8477 23.0749 23.1325 22.9062 23.3525C22.7295 23.5828 22.4947 23.7628 22.2266 23.874C21.9225 24 21.5581 24 20.8311 24H5.49902C4.91227 24 4.61795 23.9997 4.41895 23.8779C4.24504 23.7712 4.11673 23.6038 4.05859 23.4082C3.99232 23.1844 4.06779 22.8999 4.21973 22.333L6.16113 15.0918H4.37988C3.95134 15.0918 3.60352 14.7375 3.60352 14.3008C3.60352 13.8641 3.95134 13.5098 4.37988 13.5098H6.58496V13.5088H8.22266V13.5098H9.82715V13.5088H23.7832C24.2115 13.5085 24.5586 13.1543 24.5586 12.7178C24.5585 12.288 24.2219 11.9395 23.8027 11.9287H0.776367C0.347824 11.9287 0 11.5744 0 11.1377C0.000200974 10.7012 0.347948 10.3477 0.776367 10.3477H7.43164L7.43262 10.3457H9.07031L9.06934 10.3477H10.6738L10.6748 10.3457H22.5625C22.9909 10.3457 23.3387 9.99215 23.3389 9.55566C23.3389 9.12567 23.0015 8.77625 22.582 8.76562H3.74219C3.31372 8.76562 2.96594 8.41216 2.96582 7.97559C2.96582 7.53891 3.31364 7.18457 3.74219 7.18457H8.28027V7.18359H9.91797V7.18457H11.5225V7.18359H26.624C27.0523 7.18333 27.3994 6.8291 27.3994 6.39258C27.3994 5.95607 27.0523 5.60182 26.624 5.60156H11.9463L12.9219 1.96289C13.1102 1.26038 13.204 0.908618 13.4043 0.647461C13.5811 0.417118 13.8157 0.237148 14.084 0.125977C14.3881 8.18271e-05 14.7523 1.70821e-09 15.4795 0H30.8115ZM10.874 3.61523L10.3418 5.60156H8.7041L8.79297 5.26953C8.98126 4.56701 9.07601 4.21526 9.27637 3.9541C9.4532 3.72381 9.6878 3.54373 9.95605 3.43262C10.1995 3.3319 10.4814 3.3126 10.957 3.30859C10.9313 3.40271 10.9036 3.50477 10.874 3.61523Z" fill="#0034C2"/>
</svg>
